<?xml version="1.0" standalone="no"?>
<!DOCTYPE svg PUBLIC "-//W3C//DTD SVG 20010904//EN"
 "http://www.w3.org/TR/2001/REC-SVG-20010904/DTD/svg10.dtd">
<svg version="1.0" xmlns="http://www.w3.org/2000/svg"
 width="768.000000pt" height="768.000000pt" viewBox="0 0 768.000000 768.000000"
 preserveAspectRatio="xMidYMid meet">

<g transform="translate(0.000000,768.000000) scale(0.100000,-0.100000)"
fill="#000000" stroke="none">
<path d="M1462 5349 c-277 -31 -481 -133 -652 -325 -33 -38 -77 -93 -97 -122
-37 -57 -138 -263 -149 -306 -6 -26 -6 -26 -30 -7 -64 50 -201 25 -268 -49
-20 -22 -38 -50 -40 -62 -3 -13 -8 -36 -11 -53 -19 -88 -18 -100 13 -130 17
-17 32 -39 33 -49 6 -28 51 -57 90 -58 56 -1 152 14 181 28 44 23 70 64 65
104 -2 21 4 51 14 75 10 22 19 50 19 62 0 12 9 27 19 33 22 11 17 28 56 -187
31 -170 64 -274 91 -287 10 -5 41 -40 68 -78 28 -38 69 -87 93 -109 32 -29 55
-66 92 -150 55 -124 142 -281 176 -319 13 -14 25 -43 27 -64 4 -36 0 -44 -39
-81 -53 -51 -58 -85 -12 -85 23 0 30 -4 25 -15 -15 -41 -17 -111 -2 -130 13
-17 18 -18 35 -7 17 10 21 10 21 -2 0 -74 28 -250 60 -381 22 -88 46 -198 54
-245 14 -81 14 -85 -5 -98 -14 -10 -19 -24 -18 -60 2 -77 11 -106 37 -112 18
-4 32 -25 61 -95 21 -50 70 -155 108 -235 119 -245 193 -430 193 -480 0 -41
-98 -126 -140 -122 -23 3 -32 -2 -45 -27 -8 -17 -29 -38 -45 -46 -20 -10 -30
-23 -30 -38 0 -35 -161 -170 -193 -162 -32 8 -136 -32 -169 -66 -32 -32 -37
-84 -13 -141 8 -20 18 -69 23 -109 17 -136 79 -233 155 -246 32 -5 40 -1 66
28 30 32 31 37 31 126 0 51 5 102 11 115 6 13 31 39 55 58 34 27 43 40 39 56
-4 17 5 28 37 50 22 16 55 29 72 30 19 1 36 10 44 23 8 12 22 21 31 21 29 0
61 30 61 58 1 21 14 37 62 72 33 25 100 83 148 130 110 106 119 130 95 258
-18 97 -106 368 -184 569 -28 73 -51 135 -51 138 0 3 10 5 21 5 13 0 38 -19
63 -47 22 -26 111 -124 196 -218 85 -94 173 -193 196 -220 l41 -50 -12 -67
c-6 -37 -13 -68 -15 -70 -3 -2 -14 -8 -25 -14 -11 -7 -19 -20 -17 -30 10 -64
5 -146 -18 -268 -23 -120 -30 -140 -48 -147 -27 -10 -34 -38 -36 -149 -1 -80
1 -92 22 -112 20 -20 36 -23 140 -29 64 -4 135 -12 157 -19 21 -7 65 -10 97
-8 73 5 108 34 108 88 0 40 -11 53 -70 83 -19 10 -56 33 -82 53 -46 33 -48 36
-48 85 0 42 -3 52 -20 56 -24 6 -24 11 -4 102 10 44 21 71 29 71 25 0 29 14
39 135 2 22 17 79 34 127 46 128 49 156 20 220 -26 57 -77 122 -203 258 -43
47 -150 165 -237 263 -138 155 -157 180 -148 198 14 25 -19 104 -48 113 -26 9
-30 33 -38 226 -6 138 -5 160 8 160 8 0 80 -14 159 -31 79 -17 205 -41 279
-55 217 -39 267 -53 273 -75 7 -25 71 -52 114 -47 25 3 33 0 33 -12 0 -9 12
-40 26 -69 59 -118 187 -142 285 -54 59 53 91 123 97 209 7 116 -34 206 -112
244 -69 33 -142 21 -204 -34 -35 -30 -39 -31 -72 -20 -46 17 -107 17 -113 2
-11 -35 -475 116 -689 223 l-78 39 0 88 c0 48 -6 112 -14 142 -16 60 -14 70
13 70 73 0 650 196 824 280 77 37 115 50 132 46 13 -3 45 -2 70 4 l47 10 44
-49 c51 -57 95 -75 165 -69 128 13 207 174 164 333 -50 188 -232 257 -342 132
-18 -20 -37 -55 -44 -77 -7 -21 -16 -37 -21 -34 -4 3 -33 -2 -64 -11 -45 -13
-58 -22 -67 -44 -9 -25 -19 -29 -96 -45 -47 -10 -187 -46 -311 -81 -124 -34
-241 -66 -260 -70 l-35 -8 34 29 c60 50 149 172 196 267 53 108 81 212 91 334
3 48 12 98 20 110 21 34 17 103 -12 195 -52 163 -138 304 -245 402 -112 101
-346 203 -514 225 -133 17 -167 18 -243 10z m564 -181 c5 4 5 3 1 -2 -12 -15
-34 -15 -34 0 0 9 4 11 12 4 7 -5 16 -6 21 -2z m119 -78 c3 -5 1 -10 -4 -10
-6 0 -11 5 -11 10 0 6 2 10 4 10 3 0 8 -4 11 -10z m55 -55 c4 2 16 -5 26 -18
l19 -22 -22 19 c-23 19 -33 10 -12 -11 8 -8 7 -13 -1 -18 -7 -4 -21 2 -33 14
-12 12 -16 21 -9 21 7 0 12 8 13 18 0 10 3 12 6 4 2 -6 8 -10 13 -7z m-425
-13 c-3 -3 -11 0 -18 7 -9 10 -8 11 6 5 10 -3 15 -9 12 -12z m332 -18 c-3 -3
-12 -4 -19 -1 -8 3 -5 6 6 6 11 1 17 -2 13 -5z m-240 -10 c-3 -3 -12 -4 -19
-1 -8 3 -5 6 6 6 11 1 17 -2 13 -5z m43 -106 c0 -6 -7 -5 -15 2 -8 7 -15 17
-15 22 0 6 7 5 15 -2 8 -7 15 -17 15 -22z m400 15 c0 -3 -7 -3 -15 1 -8 3 -15
0 -15 -6 0 -6 -3 -9 -6 -5 -11 10 6 26 21 20 8 -3 15 -7 15 -10z m-86 -9 c3
-8 2 -12 -4 -9 -6 3 -10 10 -10 16 0 14 7 11 14 -7z m-487 0 c-3 -3 -12 -4
-19 -1 -8 3 -5 6 6 6 11 1 17 -2 13 -5z m596 -71 c-4 -10 -2 -14 5 -9 6 3 13
2 16 -3 4 -5 -1 -8 -9 -7 -20 3 -28 13 -20 25 10 17 15 13 8 -6z m-876 -85
c-3 -8 -6 -5 -6 6 -1 11 2 17 5 13 3 -3 4 -12 1 -19z m798 -28 c-3 -5 -12 -10
-18 -10 -7 0 -6 4 3 10 19 12 23 12 15 0z m-860 -108 c-3 -3 -11 0 -18 7 -9
10 -8 11 6 5 10 -3 15 -9 12 -12z m-900 -26 c19 -8 35 -19 35 -25 0 -5 16 -18
35 -30 29 -17 35 -26 35 -53 -1 -39 -24 -86 -34 -69 -4 6 -13 11 -21 11 -11 0
-11 -6 -2 -32 9 -22 9 -32 1 -35 -24 -8 -49 -32 -41 -39 4 -5 21 -3 37 3 24 9
30 9 30 -2 0 -22 -43 -64 -73 -71 -26 -6 -27 -5 -18 18 5 14 6 31 1 38 -6 9
-13 4 -25 -21 l-18 -33 -23 27 c-13 15 -28 27 -34 27 -17 0 -12 -25 10 -48
l21 -22 -44 0 c-24 0 -52 7 -63 15 -18 14 -18 16 -1 29 11 9 14 17 8 20 -6 4
-8 20 -4 36 7 37 -9 39 -27 5 -13 -24 -15 -24 -32 -8 -10 9 -18 27 -18 41 0
22 2 23 17 11 15 -13 16 -11 10 13 -6 22 -2 32 20 54 l28 26 -27 -5 c-35 -5
-36 9 -3 48 21 25 24 27 25 11 0 -17 4 -16 33 12 21 20 43 32 60 32 17 0 27 5
27 15 0 19 31 19 75 1z m1145 -102 l76 -5 -4 -69 c-5 -80 9 -129 50 -175 58
-66 144 -70 197 -10 37 42 44 78 40 190 l-4 85 42 0 c23 0 45 -4 48 -10 3 -5
25 -10 48 -10 l42 0 1 -75 c1 -126 66 -212 152 -202 38 4 37 -2 -10 -100 -29
-59 -78 -119 -78 -95 0 7 -13 12 -30 12 -23 0 -30 -5 -30 -19 0 -20 -25 -51
-40 -51 -5 0 -14 9 -20 21 -9 15 -8 24 1 37 8 9 9 14 4 9 -4 -4 -17 0 -27 9
-21 20 -40 9 -64 -38 -16 -31 -54 -51 -78 -42 -8 3 -19 19 -25 35 -6 19 -17
29 -29 29 -16 0 -21 -8 -24 -39 -2 -22 -2 -38 1 -36 2 3 12 -7 23 -20 16 -20
29 -25 64 -25 45 0 83 13 96 34 4 7 15 3 31 -12 13 -12 32 -22 42 -22 16 0 13
-6 -15 -35 -19 -19 -40 -35 -47 -35 -7 0 -17 -9 -23 -21 -7 -11 -14 -18 -17
-15 -3 2 -15 -4 -26 -15 -12 -11 -27 -17 -35 -14 -7 2 -11 1 -8 -4 3 -5 -1
-12 -10 -15 -10 -4 -13 -2 -9 7 4 6 -1 3 -9 -7 -9 -11 -16 -17 -16 -13 0 4
-10 1 -23 -8 -13 -8 -27 -12 -30 -8 -4 3 -7 0 -7 -7 0 -7 -3 -10 -6 -7 -4 3
-15 2 -26 -4 -18 -10 -40 -16 -83 -24 -11 -2 -42 -7 -70 -12 -75 -14 -269 -2
-281 18 -3 5 -2 9 3 9 4 0 8 12 9 28 0 15 6 56 13 92 22 115 26 190 26 448 l0
254 60 -7 c33 -3 94 -8 135 -11z m-650 -68 c0 -3 -4 -8 -10 -11 -5 -3 -10 -1
-10 4 0 6 5 11 10 11 6 0 10 -2 10 -4z m-146 -174 c3 -5 -1 -9 -9 -9 -8 0 -12
4 -9 9 3 4 7 8 9 8 2 0 6 -4 9 -8z m27 -26 c-1 -3 -3 -6 -6 -6 -9 0 -42 -35
-39 -41 2 -3 -3 -6 -11 -6 -8 0 -11 5 -7 11 7 11 8 17 11 37 0 6 8 9 16 6 8
-4 17 -2 21 4 6 10 16 6 15 -5z m83 -2 c3 -8 2 -12 -4 -9 -6 3 -10 10 -10 16
0 14 7 11 14 -7z m-9 -24 c3 -6 -1 -7 -9 -4 -18 7 -21 14 -7 14 6 0 13 -4 16
-10z m-44 -102 c6 -24 13 -52 14 -63 2 -11 7 -29 11 -40 7 -19 7 -19 -9 -3 -9
9 -17 19 -17 22 0 3 -11 17 -25 32 -14 15 -25 31 -25 36 0 9 30 58 36 58 2 0
9 -19 15 -42z m2270 -12 c85 -36 175 -197 136 -245 -9 -12 -9 -13 0 -7 9 5 11
2 7 -8 -3 -9 -9 -14 -14 -11 -4 2 -12 -7 -18 -21 -7 -13 -23 -29 -37 -34 -39
-15 -85 -21 -85 -12 0 5 -16 14 -35 22 -58 23 -105 111 -105 195 0 28 0 60 0
71 0 25 13 37 55 52 42 14 57 14 96 -2z m-2174 -28 c-3 -8 -6 -5 -6 6 -1 11 2
17 5 13 3 -3 4 -12 1 -19z m377 -132 c-3 -14 -10 -26 -14 -26 -5 0 -6 -17 -3
-37 6 -36 5 -37 -13 -23 -10 8 -22 20 -26 25 -10 14 -60 -17 -73 -44 -11 -23
-30 -28 -40 -10 -4 6 -14 8 -23 4 -9 -3 -13 -3 -9 1 4 4 0 16 -9 25 -16 18
-18 17 -50 -18 -38 -41 -57 -37 -31 6 22 38 22 39 -15 43 -28 3 -33 7 -34 30
-1 25 2 26 45 26 54 0 60 0 171 14 47 6 92 14 100 18 21 12 32 -3 24 -34z
m-48 -129 c18 -15 21 -26 17 -56 -3 -20 -12 -41 -19 -47 -16 -13 -19 -28 -4
-19 6 3 7 -1 4 -9 -7 -18 -24 -11 -24 10 0 8 -5 14 -11 14 -5 0 -8 -3 -6 -7 3
-5 -33 -9 -78 -10 l-84 -1 -10 30 c-15 43 -13 59 9 86 20 25 42 21 70 -12 16
-20 30 -20 30 0 0 8 4 13 8 10 5 -3 16 6 26 19 19 26 35 24 72 -8z m721 -82
c0 -8 -4 -12 -9 -9 -5 3 -6 10 -3 15 9 13 12 11 12 -6z m180 9 c-3 -3 -12 -4
-19 -1 -8 3 -5 6 6 6 11 1 17 -2 13 -5z m-754 -120 c31 -5 37 -10 37 -30 0
-18 -5 -23 -22 -21 -17 2 -25 -6 -36 -38 -8 -22 -19 -53 -25 -70 -10 -25 -119
-145 -132 -145 -14 0 -2 75 19 123 14 30 32 81 41 113 9 33 18 65 21 72 2 9
13 12 31 8 16 -3 45 -8 66 -12z m412 -2 c-3 -3 -11 0 -18 7 -9 10 -8 11 6 5
10 -3 15 -9 12 -12z m-211 -23 c35 -21 36 -21 -57 -23 -38 -1 -71 2 -74 7 -22
36 77 49 131 16z m198 -26 c17 -29 16 -30 -10 -67 l-27 -38 -21 48 c-21 49
-21 49 -2 77 22 31 32 27 60 -20z m-182 -109 l0 -77 -57 7 c-32 3 -89 9 -126
13 -43 4 -66 10 -63 17 3 6 13 35 22 64 l18 52 103 0 103 0 0 -76z m120 -10
c0 -6 -7 -17 -15 -24 -13 -11 -15 -6 -15 31 1 41 2 43 15 25 8 -11 15 -25 15
-32z m-65 -31 c5 -26 3 -33 -9 -33 -12 0 -16 11 -16 48 1 50 12 43 25 -15z
m139 -53 c-6 -6 -10 -3 -10 10 0 13 4 16 10 10 7 -7 7 -13 0 -20z m-43 -23
c-6 -8 -9 -16 -6 -19 3 -2 -2 -5 -10 -5 -13 0 -13 3 2 19 19 21 31 25 14 5z
m-474 -55 c-31 -32 -35 -62 -9 -63 9 0 35 -9 57 -19 l40 -18 -28 -11 c-16 -6
-32 -11 -36 -11 -4 0 -15 -8 -25 -18 -15 -17 -15 -22 -1 -48 8 -16 15 -35 15
-43 0 -25 -27 7 -47 55 -10 24 -23 44 -29 44 -7 0 -22 -25 -34 -55 -13 -31
-24 -54 -27 -52 -2 2 1 26 6 53 22 112 22 114 3 114 -10 0 -24 -6 -31 -12 -11
-10 -10 -8 0 10 8 12 29 29 47 38 19 9 50 27 69 40 48 32 63 30 30 -4z m103
-232 c8 -5 11 -10 5 -10 -5 0 -17 5 -25 10 -8 5 -10 10 -5 10 6 0 17 -5 25
-10z m-121 -53 c0 -9 -2 -8 -6 1 -2 6 -10 9 -15 6 -7 -4 -8 -2 -4 5 9 13 26 5
25 -12z m83 9 c7 4 8 2 4 -5 -9 -13 -26 -5 -25 12 0 9 2 8 6 -1 2 -6 10 -9 15
-6z m383 -64 c-3 -3 -11 0 -18 7 -9 10 -8 11 6 5 10 -3 15 -9 12 -12z m1201 9
c-4 -5 3 -7 14 -4 12 3 22 -1 26 -10 3 -9 11 -14 18 -11 7 3 20 -6 30 -20 19
-30 20 -39 4 -31 -7 4 -4 -1 6 -9 11 -9 14 -16 8 -16 -7 0 -12 -10 -12 -23 0
-38 -50 -128 -98 -174 -39 -39 -108 -83 -129 -83 -10 0 -45 72 -42 86 1 5 -1
21 -5 36 -5 15 -3 35 4 48 7 12 7 20 2 16 -6 -4 -8 2 -5 14 3 11 9 17 14 14 5
-3 9 5 9 16 0 28 29 90 42 90 5 0 6 -5 2 -12 -4 -7 -3 -8 4 -4 6 4 8 14 5 22
-4 10 2 17 16 21 11 3 21 9 21 13 0 5 12 13 28 18 35 13 44 14 38 3z m-1381
-20 c3 -5 2 -12 -3 -15 -5 -3 -9 1 -9 9 0 17 3 19 12 6z m682 -67 c-3 -3 -12
-4 -19 -1 -8 3 -5 6 6 6 11 1 17 -2 13 -5z m-893 -300 c3 -8 2 -12 -4 -9 -6 3
-10 10 -10 16 0 14 7 11 14 -7z m963 -1360 c30 -12 43 -23 43 -36 0 -11 -3
-17 -7 -15 -5 3 -9 -5 -9 -17 -2 -33 -85 -214 -101 -220 -7 -3 -13 -1 -13 4 0
5 -8 6 -17 3 -16 -6 -16 -5 -4 10 9 12 10 17 2 17 -7 0 -9 5 -5 11 4 6 8 23
10 38 8 64 15 109 26 146 5 22 12 47 13 55 2 8 4 16 4 18 2 5 17 1 58 -14z
m-853 -238 c-1 -9 2 -16 7 -16 6 0 5 -9 -1 -20 -8 -15 -8 -20 1 -18 6 2 18
-11 25 -28 l13 -32 -64 -13 c-35 -7 -62 -15 -60 -18 3 -5 -66 -7 -102 -2 -21
2 -15 29 7 36 11 4 17 11 14 17 -4 6 -3 8 3 5 5 -4 19 4 31 16 36 39 87 83 77
66 -6 -8 -1 -5 10 8 21 26 41 25 39 -1z m936 -37 c0 -33 6 -47 33 -72 25 -23
27 -27 8 -17 -40 21 -70 63 -71 98 0 22 5 32 15 32 11 0 15 -11 15 -41z
m-1267 -221 c8 -185 43 -271 122 -299 27 -10 32 -16 23 -26 -26 -31 -74 -5
-113 61 -15 26 -32 78 -41 129 -8 47 -21 105 -29 128 -18 51 -19 83 -3 109 27
43 35 21 41 -102z m1027 68 c13 -17 108 -49 197 -66 85 -17 196 -10 222 14 21
19 21 19 21 -1 0 -61 -79 -78 -201 -44 -57 16 -91 19 -149 15 -88 -7 -107 3
-117 59 -6 39 5 48 27 23z m-755 -46 c4 -6 -14 -30 -38 -53 -25 -23 -48 -53
-51 -67 -3 -14 -8 -36 -10 -50 -3 -14 -3 2 -2 35 5 73 18 105 54 127 33 20 39
21 47 8z"/>
<path d="M2180 5012 c0 -12 19 -26 26 -19 2 2 -2 10 -11 17 -9 8 -15 8 -15 2z"/>
<path d="M402 4508 c-49 -25 -82 -63 -82 -94 0 -33 15 -30 30 6 7 17 19 30 26
30 8 0 23 9 35 21 15 15 30 20 50 17 22 -4 29 -1 29 13 0 25 -45 29 -88 7z"/>
<path d="M471 4370 c-13 -11 -37 -20 -53 -20 -40 0 -32 -24 10 -28 23 -2 38 4
57 22 41 42 31 62 -14 26z"/>
<path d="M825 4190 c-3 -5 -1 -10 4 -10 6 0 11 5 11 10 0 6 -2 10 -4 10 -3 0
-8 -4 -11 -10z"/>
<path d="M1207 3863 c-10 -3 -16 -10 -14 -16 6 -20 31 -18 45 3 13 21 9 23
-31 13z"/>
<path d="M1260 3737 c-14 -17 -18 -27 -10 -22 8 5 30 8 50 8 19 -1 27 1 18 4
-10 2 -18 11 -18 18 0 26 -15 22 -40 -8z"/>
<path d="M1128 3730 l-17 -30 34 0 c19 0 36 3 38 8 5 6 -26 52 -35 52 -1 0
-11 -14 -20 -30z"/>
<path d="M5425 4549 c-22 -5 -43 -13 -47 -17 -5 -5 -34 -4 -66 2 -69 11 -107
3 -135 -28 -20 -22 -23 -23 -56 -9 -45 19 -124 10 -188 -23 -32 -16 -65 -24
-99 -24 -72 0 -150 -27 -180 -63 -14 -17 -30 -27 -39 -23 -20 7 -123 -12 -158
-30 -15 -8 -33 -25 -39 -38 -7 -17 -22 -26 -51 -30 -64 -11 -126 -42 -144 -74
-9 -16 -32 -35 -50 -41 -43 -16 -103 -73 -103 -98 0 -13 -11 -25 -30 -33 -38
-16 -117 -100 -126 -134 -3 -15 -4 -35 -1 -46 3 -11 -3 -26 -14 -36 -38 -35
-62 -122 -62 -230 l0 -100 -86 -12 c-165 -22 -388 -93 -470 -148 -43 -29 -88
-95 -97 -141 -25 -133 96 -221 381 -277 95 -19 636 -88 890 -113 276 -28 1015
-25 1410 5 652 50 897 87 1340 202 190 49 250 71 326 122 70 47 98 95 99 166
0 65 -30 114 -101 161 -90 60 -283 115 -514 146 -66 9 -123 20 -126 23 -3 4
-12 23 -19 42 -21 52 -90 167 -130 214 -20 22 -44 60 -55 84 -22 51 -94 118
-136 127 -17 4 -48 26 -72 52 -45 49 -84 73 -118 73 -13 0 -44 22 -76 54 -30
30 -85 71 -122 91 -36 20 -81 47 -100 61 -41 29 -135 58 -158 49 -10 -3 -47 9
-87 30 -54 27 -87 37 -136 40 -36 2 -90 11 -120 20 -60 17 -77 17 -135 4z
m-135 -241 c0 -5 5 -6 10 -3 6 4 8 16 5 28 -5 16 -4 18 3 8 7 -9 36 -15 83
-18 41 -2 97 -9 124 -15 28 -5 66 -12 86 -14 120 -12 412 -96 521 -149 25 -13
49 -21 52 -18 3 4 6 0 6 -8 0 -8 5 -21 10 -29 9 -13 11 -13 21 0 8 11 12 12
16 3 2 -7 9 -13 14 -13 22 0 127 -81 133 -102 4 -17 8 -20 14 -10 7 10 18 7
50 -14 23 -15 42 -32 42 -36 0 -5 4 -7 9 -4 10 7 21 -16 21 -47 1 -20 2 -20
13 -5 15 18 31 12 83 -31 17 -14 41 -34 53 -43 12 -10 21 -30 21 -45 1 -26 2
-26 14 -10 8 11 22 16 37 13 13 -3 27 -5 30 -5 12 -2 57 -78 74 -127 24 -65
15 -111 -30 -157 -90 -92 -126 -106 -515 -186 -484 -101 -779 -128 -1260 -118
-288 7 -464 22 -607 55 l-78 18 -2 49 c-4 91 -82 177 -281 310 -8 6 23 107 55
177 39 85 64 107 125 109 l33 1 -27 10 c-16 5 -28 13 -28 17 0 4 18 18 41 30
22 13 43 29 46 37 3 8 16 14 29 14 13 0 24 4 24 10 0 16 110 82 320 189 78 40
140 65 190 76 3 0 28 9 56 18 28 10 98 26 155 36 121 22 150 29 156 35 7 7 53
-24 53 -36z m1815 -795 c170 -31 318 -73 364 -103 77 -49 104 -83 104 -130 0
-51 -23 -84 -86 -127 -67 -45 -133 -68 -377 -129 -364 -91 -672 -135 -1200
-173 -788 -57 -1165 -49 -1895 40 -418 51 -555 77 -662 130 -114 55 -140 118
-83 197 36 50 128 97 277 141 85 25 303 66 309 58 0 -1 4 -13 7 -28 6 -22 2
-26 -26 -35 -39 -11 -77 -65 -77 -109 0 -57 99 -123 250 -169 113 -34 496 -72
890 -88 298 -12 677 -3 935 22 198 20 691 102 841 140 220 56 332 119 334 187
0 25 -72 93 -111 104 -36 11 -37 13 -24 33 8 11 15 31 15 44 0 24 1 24 68 17
37 -4 103 -13 147 -22z m-2933 -82 c-1 -7 2 -10 8 -6 14 9 35 -9 71 -61 21
-32 26 -45 17 -50 -7 -4 -10 -4 -6 1 9 9 -26 42 -53 50 -11 4 -17 11 -14 16 3
5 0 6 -8 3 -19 -7 -107 82 -107 108 0 18 5 16 48 -15 26 -19 46 -40 44 -46z
m2723 -31 c46 -15 78 -56 64 -81 -38 -72 -261 -140 -669 -204 -382 -61 -417
-65 -700 -80 -455 -24 -757 -17 -1240 30 -263 26 -349 44 -444 92 -118 60
-132 91 -69 155 l36 37 22 -47 c23 -49 81 -109 137 -139 48 -26 192 -24 245 4
39 20 40 20 124 2 189 -41 306 -52 656 -56 534 -8 742 13 1314 131 320 66 351
77 439 154 29 26 46 35 48 27 2 -8 19 -19 37 -25z"/>
</g>
</svg>
