<?xml version="1.0" standalone="no"?>
<!DOCTYPE svg PUBLIC "-//W3C//DTD SVG 20010904//EN"
 "http://www.w3.org/TR/2001/REC-SVG-20010904/DTD/svg10.dtd">
<svg version="1.0" xmlns="http://www.w3.org/2000/svg"
 width="236.000000pt" height="236.000000pt" viewBox="0 0 236.000000 236.000000"
 preserveAspectRatio="xMidYMid meet" >

<g transform="translate(0.000000,236.000000) scale(0.100000,-0.100000)"
style="fill:#ffffff;transform: ;msFilter:;" stroke="none">
<path d="M1679 2266 c18 -9 44 -16 58 -16 15 0 38 -14 60 -37 20 -21 31 -30
23 -20 -20 27 12 22 43 -7 15 -14 34 -26 44 -28 10 -2 18 -11 18 -22 0 -12 13
-22 40 -31 l40 -14 -25 19 c-13 10 -28 16 -32 14 -3 -2 -10 1 -14 7 -4 8 -3 9
4 5 7 -4 12 -3 12 2 0 5 -12 15 -27 23 -16 7 -42 24 -59 36 -17 13 -37 23 -44
23 -7 0 -22 7 -31 16 -10 9 -35 20 -56 25 -21 4 -49 10 -63 14 -16 4 -13 1 9
-9z"/>
<path d="M1606 2261 c-19 -7 -19 -8 2 -13 12 -4 20 -2 17 2 -3 5 1 11 7 13 7
3 9 5 3 6 -5 0 -19 -4 -29 -8z"/>
<path d="M1520 2240 c-14 -11 -21 -20 -17 -20 5 0 20 9 34 20 14 11 22 20 17
20 -5 0 -20 -9 -34 -20z"/>
<path d="M1640 2236 c0 -2 8 -10 18 -17 15 -13 16 -12 3 4 -13 16 -21 21 -21
13z"/>
<path d="M1735 2211 c11 -14 26 -31 33 -39 16 -17 15 -25 -1 -19 -7 3 -13 -3
-13 -13 0 -14 4 -15 18 -6 25 15 23 22 -19 64 -21 21 -29 27 -18 13z"/>
<path d="M1435 2200 c-10 -11 -25 -20 -33 -20 -8 0 -30 -13 -49 -30 -18 -16
-29 -30 -23 -30 5 0 20 11 31 24 12 13 37 27 56 31 19 3 32 9 29 12 -3 3 -1
12 5 20 18 21 4 15 -16 -7z"/>
<path d="M1565 2210 c11 -5 27 -9 35 -9 9 0 8 4 -5 9 -11 5 -27 9 -35 9 -9 0
-8 -4 5 -9z"/>
<path d="M1478 2193 c25 -5 27 -13 10 -33 -7 -8 -3 -6 10 5 25 20 14 36 -23
33 -17 -1 -17 -1 3 -5z"/>
<path d="M675 2169 c-11 -4 -36 -8 -55 -8 -19 -1 -48 -10 -65 -21 -16 -11 -38
-20 -47 -20 -9 0 -30 -11 -46 -25 -17 -14 -37 -25 -45 -25 -15 0 -117 -92
-117 -106 0 -8 19 9 72 64 23 23 40 32 64 32 24 0 32 4 28 14 -5 13 33 34 69
40 9 1 25 10 35 19 12 11 33 17 53 16 19 -2 43 2 55 9 11 6 26 7 33 2 8 -4 32
-5 54 -2 36 4 43 2 63 -24 20 -25 23 -26 17 -6 -6 25 17 31 36 8 7 -8 21 -12
32 -9 11 3 29 -2 42 -13 l22 -19 -18 21 c-17 20 -43 29 -108 38 -14 2 -35 8
-45 13 -11 6 -30 7 -44 3 -14 -4 -34 -4 -45 0 -11 4 -29 4 -40 -1z"/>
<path d="M1815 2160 c-15 -6 -10 -8 18 -8 20 0 37 1 37 3 0 8 -38 11 -55 5z"/>
<path d="M1445 2140 c-3 -6 1 -7 9 -4 18 7 21 14 7 14 -6 0 -13 -4 -16 -10z"/>
<path d="M675 2120 c10 -11 20 -20 23 -20 3 0 -3 9 -13 20 -10 11 -20 20 -23
20 -3 0 3 -9 13 -20z"/>
<path d="M1600 2120 c-9 -6 -10 -10 -3 -10 6 0 15 5 18 10 8 12 4 12 -15 0z"/>
<path d="M1283 2093 c-9 -16 -30 -43 -47 -62 l-31 -35 35 28 c19 16 42 44 52
62 20 41 15 45 -9 7z"/>
<path d="M895 2091 c4 -13 3 -21 -2 -18 -5 3 -24 2 -43 -3 -32 -7 -31 -8 17
-8 50 1 52 2 41 22 -16 31 -21 34 -13 7z"/>
<path d="M986 2103 c7 -4 14 -17 17 -28 5 -16 5 -15 4 4 -1 14 -9 26 -17 28
-10 3 -11 2 -4 -4z"/>
<path d="M1706 2095 c-11 -8 -17 -17 -14 -20 2 -3 13 4 23 15 21 23 18 25 -9
5z"/>
<path d="M1786 2095 c-11 -8 -17 -17 -14 -20 2 -3 13 4 23 15 21 23 18 25 -9
5z"/>
<path d="M662 2074 c-7 -8 -8 -14 -3 -14 10 0 25 19 20 25 -2 1 -10 -3 -17
-11z"/>
<path d="M1308 2083 c7 -3 16 -2 19 1 4 3 -2 6 -13 5 -11 0 -14 -3 -6 -6z"/>
<path d="M1485 2080 c-3 -6 1 -7 9 -4 18 7 21 14 7 14 -6 0 -13 -4 -16 -10z"/>
<path d="M1592 2070 c-7 -11 -17 -20 -23 -20 -6 0 -17 -7 -25 -15 -22 -21 -7
-19 32 6 19 11 34 27 34 35 0 19 -3 18 -18 -6z"/>
<path d="M1630 2080 c-9 -6 -10 -10 -3 -10 6 0 15 5 18 10 8 12 4 12 -15 0z"/>
<path d="M1806 2064 c-23 -23 -20 -30 4 -9 11 10 20 20 20 22 0 7 -9 2 -24
-13z"/>
<path d="M1870 2070 c0 -5 7 -7 15 -4 8 4 15 8 15 10 0 2 -7 4 -15 4 -8 0 -15
-4 -15 -10z"/>
<path d="M975 2042 c-11 -4 -21 -17 -22 -30 -2 -18 -72 -165 -142 -299 -5 -10
-18 -38 -29 -63 -12 -25 -41 -88 -66 -140 -25 -52 -43 -96 -41 -99 3 -2 30 50
61 115 118 250 237 490 252 507 8 9 13 17 11 16 -2 -1 -13 -4 -24 -7z"/>
<path d="M1276 2011 l-30 -36 34 32 c19 18 32 34 29 36 -2 2 -17 -12 -33 -32z"/>
<path d="M801 2010 c14 -31 19 -36 19 -24 0 6 -7 19 -16 30 -14 18 -14 18 -3
-6z"/>
<path d="M836 2017 c3 -10 9 -15 12 -12 3 3 0 11 -7 18 -10 9 -11 8 -5 -6z"/>
<path d="M1467 1991 c-20 -20 -37 -42 -37 -48 0 -7 -4 -13 -10 -13 -5 0 -7 -7
-3 -16 5 -13 9 -10 18 12 7 16 27 44 45 61 19 18 32 34 29 36 -2 2 -21 -13
-42 -32z"/>
<path d="M2076 2015 c3 -11 22 -30 42 -43 l37 -24 -25 24 c-14 13 -33 32 -42
43 l-17 20 5 -20z"/>
<path d="M438 2013 c6 -2 18 -2 25 0 6 3 1 5 -13 5 -14 0 -19 -2 -12 -5z"/>
<path d="M1978 2013 c12 -2 30 -2 40 0 9 3 -1 5 -23 4 -22 0 -30 -2 -17 -4z"/>
<path d="M435 1989 c-4 -6 -5 -12 -2 -15 2 -3 7 2 10 11 7 17 1 20 -8 4z"/>
<path d="M1200 1978 c0 -7 -12 -25 -27 -42 l-28 -30 32 25 c27 20 45 59 28 59
-3 0 -5 -5 -5 -12z"/>
<path d="M330 1969 c0 -5 5 -7 10 -4 6 3 10 8 10 11 0 2 -4 4 -10 4 -5 0 -10
-5 -10 -11z"/>
<path d="M1951 1964 c0 -11 3 -14 6 -6 3 7 2 16 -1 19 -3 4 -6 -2 -5 -13z"/>
<path d="M291 1936 c0 -11 -8 -28 -18 -38 -14 -16 -22 -45 -39 -143 -3 -16 -1
-41 5 -55 l9 -25 7 30 c4 17 13 39 21 50 13 17 16 18 25 5 9 -12 10 -12 5 4
-4 10 -1 26 6 35 7 9 0 5 -14 -8 -15 -12 -33 -37 -42 -55 l-16 -31 0 37 c0 32
8 45 58 95 54 55 48 57 -10 4 l-28 -25 0 28 c0 26 24 56 66 84 17 11 17 12 -3
2 -17 -8 -22 -7 -26 8 -4 15 -5 15 -6 -2z"/>
<path d="M453 1943 c9 -2 25 -2 35 0 9 3 1 5 -18 5 -19 0 -27 -2 -17 -5z"/>
<path d="M2030 1941 c0 -10 19 -25 25 -20 1 2 -3 10 -11 17 -8 7 -14 8 -14 3z"/>
<path d="M2151 1928 c0 -9 -7 -19 -13 -21 -9 -4 -8 -6 3 -6 20 -1 63 -47 55
-59 -3 -5 6 -20 19 -32 32 -30 33 -54 3 -47 -21 5 -21 5 -6 -7 10 -7 14 -17
10 -22 -4 -4 1 -2 11 5 23 18 22 42 -5 71 -13 14 -22 29 -20 34 2 5 -8 21 -22
35 -13 14 -26 35 -29 46 -3 15 -5 16 -6 3z"/>
<path d="M2085 1880 c10 -11 20 -20 23 -20 3 0 -3 9 -13 20 -10 11 -20 20 -23
20 -3 0 3 -9 13 -20z"/>
<path d="M1407 1883 c-4 -3 -7 -23 -7 -44 0 -21 -4 -41 -10 -44 -5 -3 -10 -11
-10 -18 0 -28 28 32 33 71 5 44 5 46 -6 35z"/>
<path d="M1175 1870 c-4 -6 -11 -8 -16 -5 -5 4 -9 -2 -9 -11 0 -16 1 -16 20 1
11 10 20 20 20 22 0 7 -9 3 -15 -7z"/>
<path d="M2110 1831 c0 -9 49 -56 53 -50 1 2 -10 16 -25 31 -15 15 -28 23 -28
19z"/>
<path d="M1336 1803 c-6 -14 -5 -15 5 -6 7 7 10 15 7 18 -3 3 -9 -2 -12 -12z"/>
<path d="M1179 1793 c-13 -16 -12 -17 4 -4 9 7 17 15 17 17 0 8 -8 3 -21 -13z"/>
<path d="M2051 1763 c-10 -26 -10 -27 4 -9 8 11 15 23 15 28 0 15 -7 8 -19
-19z"/>
<path d="M1135 1750 c-4 -17 -5 -34 -2 -36 2 -3 7 10 11 27 8 42 0 50 -9 9z"/>
<path d="M2011 1753 c-10 -26 -10 -27 4 -9 8 11 15 23 15 28 0 15 -7 8 -19
-19z"/>
<path d="M1321 1754 c0 -11 3 -14 6 -6 3 7 2 16 -1 19 -3 4 -6 -2 -5 -13z"/>
<path d="M2070 1750 c-6 -11 -8 -20 -6 -20 3 0 10 9 16 20 6 11 8 20 6 20 -3
0 -10 -9 -16 -20z"/>
<path d="M2140 1743 c0 -12 -23 -22 -63 -27 -12 -2 -35 -8 -50 -15 -40 -16
-52 -14 -36 7 13 16 13 16 -7 -1 -11 -9 -23 -15 -26 -12 -3 3 -11 -1 -18 -10
-15 -18 -34 -20 -24 -2 4 6 -2 4 -13 -5 -27 -24 -36 -22 -23 5 7 13 1 9 -15
-10 -25 -32 -57 -48 -39 -20 5 7 1 4 -9 -6 -20 -23 -36 -15 -17 8 7 9 10 18 8
21 -3 3 -12 -9 -19 -25 -8 -18 -26 -35 -43 -41 -37 -13 -42 -7 -22 22 9 12 16
27 16 32 0 6 -13 -11 -30 -37 -16 -26 -34 -47 -40 -47 -6 0 -2 14 10 31 12 16
20 32 17 35 -3 3 -15 -13 -28 -36 -19 -33 -32 -43 -71 -55 -76 -22 -161 -37
-193 -33 -27 3 -31 7 -38 53 -4 28 -5 74 -2 103 3 33 1 52 -6 52 -5 0 -7 -5
-4 -10 4 -6 4 -19 0 -28 -9 -21 -5 -128 6 -172 3 -9 -3 -14 -13 -14 -10 1 -15
-3 -12 -8 4 -5 16 -7 28 -4 11 4 62 14 111 22 89 16 222 58 343 109 70 29 310
94 357 96 27 2 28 2 5 6 -14 3 -28 10 -32 17 -6 8 -8 8 -8 -1z"/>
<path d="M302 1710 c0 -14 2 -19 5 -12 2 6 2 18 0 25 -3 6 -5 1 -5 -13z"/>
<path d="M1290 1720 l-25 -8 28 -1 c15 -1 27 4 27 9 0 6 -1 10 -2 9 -2 -1 -14
-5 -28 -9z"/>
<path d="M1173 1697 c-3 -5 -12 -6 -22 -2 -12 5 -13 3 -4 -6 9 -8 21 -8 55 4
42 15 42 15 10 14 -19 -1 -36 -6 -39 -10z"/>
<path d="M1301 1684 c0 -11 3 -14 6 -6 3 7 2 16 -1 19 -3 4 -6 -2 -5 -13z"/>
<path d="M1761 1663 c-10 -26 -10 -27 4 -9 8 11 15 23 15 28 0 15 -7 8 -19
-19z"/>
<path d="M1626 1645 c-9 -26 -7 -32 5 -12 6 10 9 21 6 23 -2 3 -7 -2 -11 -11z"/>
<path d="M266 1633 c-6 -14 -5 -15 5 -6 7 7 10 15 7 18 -3 3 -9 -2 -12 -12z"/>
<path d="M231 1624 c0 -11 3 -14 6 -6 3 7 2 16 -1 19 -3 4 -6 -2 -5 -13z"/>
<path d="M1301 1624 c0 -11 3 -14 6 -6 3 7 2 16 -1 19 -3 4 -6 -2 -5 -13z"/>
<path d="M245 1599 c-4 -6 -5 -12 -2 -15 2 -3 7 2 10 11 7 17 1 20 -8 4z"/>
<path d="M281 1562 c-25 -54 -40 -59 -42 -14 -2 23 -2 24 -6 5 -2 -13 2 -32
10 -43 14 -20 15 -20 27 11 7 17 20 37 27 45 8 8 13 22 11 31 -2 10 -12 -4
-27 -35z"/>
<path d="M1311 1584 c0 -11 3 -14 6 -6 3 7 2 16 -1 19 -3 4 -6 -2 -5 -13z"/>
<path d="M1321 1534 c0 -11 3 -14 6 -6 3 7 2 16 -1 19 -3 4 -6 -2 -5 -13z"/>
<path d="M297 1498 c6 -7 13 -20 16 -28 4 -10 6 -8 6 6 1 12 -6 25 -15 28 -13
5 -14 3 -7 -6z"/>
<path d="M274 1482 c-6 -4 -8 -16 -4 -27 6 -17 7 -16 12 8 3 15 5 27 4 27 0 0
-6 -4 -12 -8z"/>
<path d="M1803 1470 c16 -5 34 -12 41 -17 6 -4 3 0 -7 10 -11 9 -29 17 -41 16
-17 -1 -16 -2 7 -9z"/>
<path d="M1678 1463 c7 -3 16 -2 19 1 4 3 -2 6 -13 5 -11 0 -14 -3 -6 -6z"/>
<path d="M1639 1443 c-13 -16 -12 -17 4 -4 9 7 17 15 17 17 0 8 -8 3 -21 -13z"/>
<path d="M1878 1453 c7 -3 16 -2 19 1 4 3 -2 6 -13 5 -11 0 -14 -3 -6 -6z"/>
<path d="M321 1434 c0 -11 3 -14 6 -6 3 7 2 16 -1 19 -3 4 -6 -2 -5 -13z"/>
<path d="M1720 1420 l-35 -7 32 -2 c17 0 35 4 38 9 3 6 5 9 3 9 -2 -1 -19 -5
-38 -9z"/>
<path d="M1972 1414 c10 -10 20 -16 22 -13 3 3 -5 11 -17 18 -21 13 -21 12 -5
-5z"/>
<path d="M280 1391 c0 -4 9 -16 19 -25 11 -10 22 -32 24 -50 l4 -31 1 32 c2
22 -6 40 -23 57 -14 14 -25 21 -25 17z"/>
<path d="M611 1305 c-28 -53 -51 -103 -51 -111 0 -14 -2 -15 -17 -3 -15 13
-15 12 -5 -8 16 -29 15 -32 -10 -43 -23 -10 -23 -10 2 -7 19 2 27 11 37 47 7
25 33 84 59 133 25 48 43 87 41 87 -3 0 -28 -43 -56 -95z"/>
<path d="M1480 1338 c-29 -35 -41 -52 -26 -38 28 25 91 100 84 100 -2 0 -28
-28 -58 -62z"/>
<path d="M1638 1393 c7 -3 16 -2 19 1 4 3 -2 6 -13 5 -11 0 -14 -3 -6 -6z"/>
<path d="M1890 1396 c0 -2 7 -7 16 -10 8 -3 12 -2 9 4 -6 10 -25 14 -25 6z"/>
<path d="M1940 1386 c0 -2 8 -10 18 -17 15 -13 16 -12 3 4 -13 16 -21 21 -21
13z"/>
<path d="M892 1359 c-158 -79 -159 -304 -1 -383 88 -43 172 -31 245 36 105 97
88 261 -35 339 -58 37 -143 40 -209 8z m204 -21 c113 -76 127 -226 30 -316
-74 -68 -159 -77 -245 -24 -106 65 -124 230 -34 313 45 42 84 58 144 59 48 0
65 -5 105 -32z"/>
<path d="M1083 1304 c16 -9 35 -30 42 -47 9 -20 14 -25 15 -14 0 21 -52 77
-72 77 -7 -1 0 -8 15 -16z"/>
<path d="M881 1267 c-29 -35 -30 -38 -7 -17 24 22 52 60 44 60 -2 0 -18 -19
-37 -43z"/>
<path d="M1142 1195 c0 -16 2 -22 5 -12 2 9 2 23 0 30 -3 6 -5 -1 -5 -18z"/>
<path d="M834 1154 c-5 -19 0 -32 17 -51 24 -25 70 -53 86 -53 4 1 -9 10 -29
21 -46 24 -72 61 -63 89 3 11 4 20 1 20 -3 0 -9 -11 -12 -26z"/>
<path d="M954 1026 c21 -17 62 -21 70 -7 3 4 -5 6 -18 4 -13 -3 -34 0 -47 7
-23 11 -23 10 -5 -4z"/>
<path d="M1582 1356 c-1 -15 1 -17 7 -7 5 7 15 17 22 22 10 6 8 8 -7 7 -12 -1
-21 -10 -22 -22z"/>
<path d="M380 1314 c0 -8 5 -12 10 -9 6 4 8 11 5 16 -9 14 -15 11 -15 -7z"/>
<path d="M1554 1314 c-18 -14 -18 -15 4 -4 12 6 22 13 22 15 0 8 -5 6 -26 -11z"/>
<path d="M2010 1310 c6 -11 15 -20 20 -20 6 0 2 9 -7 20 -10 11 -19 20 -21 20
-1 0 2 -9 8 -20z"/>
<path d="M1504 1284 c-18 -14 -18 -15 4 -4 12 6 22 13 22 15 0 8 -5 6 -26 -11z"/>
<path d="M349 1263 c13 -10 37 -33 54 -50 17 -18 35 -33 41 -33 5 0 21 -10 34
-22 l25 -23 -14 22 c-7 13 -26 27 -42 32 -16 6 -33 23 -40 41 -8 17 -16 27
-20 24 -3 -4 -19 1 -34 10 -28 17 -28 17 -4 -1z"/>
<path d="M452 1248 c7 -15 15 -23 17 -17 2 6 -4 18 -13 27 -15 15 -15 15 -4
-10z"/>
<path d="M1488 1247 c-74 -59 -80 -65 -37 -38 25 17 52 37 59 46 17 21 10 18
-22 -8z"/>
<path d="M1548 1223 c7 -3 16 -2 19 1 4 3 -2 6 -13 5 -11 0 -14 -3 -6 -6z"/>
<path d="M1430 1160 c-25 -24 -37 -38 -27 -31 9 7 17 10 17 7 0 -4 14 9 31 29
45 51 32 48 -21 -5z"/>
<path d="M2162 1190 c0 -14 2 -19 5 -12 2 6 2 18 0 25 -3 6 -5 1 -5 -13z"/>
<path d="M1352 1100 c0 -14 2 -19 5 -12 2 6 2 18 0 25 -3 6 -5 1 -5 -13z"/>
<path d="M1402 1090 c-18 -29 -15 -38 4 -12 9 13 14 25 12 27 -2 2 -9 -5 -16
-15z"/>
<path d="M1954 1058 l-29 -33 33 29 c30 28 37 36 29 36 -2 0 -16 -15 -33 -32z"/>
<path d="M1924 1058 l-19 -23 23 19 c21 18 27 26 19 26 -2 0 -12 -10 -23 -22z"/>
<path d="M2019 1063 c-13 -16 -12 -17 4 -4 9 7 17 15 17 17 0 8 -8 3 -21 -13z"/>
<path d="M2020 1040 c-8 -5 -10 -10 -5 -10 6 0 17 5 25 10 8 5 11 10 5 10 -5
0 -17 -5 -25 -10z"/>
<path d="M352 1002 c24 -29 64 -58 124 -89 77 -40 175 -94 364 -201 25 -14 61
-35 80 -47 72 -45 164 -87 209 -95 25 -4 55 -11 66 -15 15 -6 17 -5 9 4 -6 6
-37 16 -69 21 -58 9 -98 29 -335 167 -47 27 -155 87 -240 132 -85 46 -175 102
-199 125 l-45 41 36 -43z"/>
<path d="M1383 1017 c-8 -17 -8 -24 0 -24 7 0 13 11 13 24 2 29 0 29 -13 0z"/>
<path d="M257 956 c-26 -40 -47 -79 -47 -87 0 -8 8 2 18 21 12 25 23 34 37 32
15 -2 17 0 6 6 -10 7 -11 14 -2 31 10 18 15 20 34 11 21 -11 21 -10 3 4 -16
13 -17 18 -6 31 7 8 11 17 9 20 -2 2 -26 -29 -52 -69z"/>
<path d="M1809 1013 c-13 -16 -12 -17 4 -4 16 13 21 21 13 21 -2 0 -10 -8 -17
-17z"/>
<path d="M1330 989 c0 -13 5 -31 10 -39 7 -11 8 -5 4 20 -8 43 -14 51 -14 19z"/>
<path d="M1391 944 c0 -11 3 -14 6 -6 3 7 2 16 -1 19 -3 4 -6 -2 -5 -13z"/>
<path d="M1469 933 c-13 -16 -12 -17 4 -4 16 13 21 21 13 21 -2 0 -10 -8 -17
-17z"/>
<path d="M1423 888 c1 -15 4 -25 8 -22 4 2 14 -7 23 -21 9 -14 26 -25 39 -25
18 0 19 -2 7 -10 -8 -5 -10 -10 -4 -10 6 0 16 6 22 13 8 10 5 13 -16 15 -27 2
-55 28 -72 67 -8 18 -9 17 -7 -7z"/>
<path d="M1392 835 c21 -22 39 -37 41 -34 2 2 -15 19 -37 38 l-41 35 37 -39z"/>
<path d="M1554 848 l-19 -23 23 19 c21 18 27 26 19 26 -2 0 -12 -10 -23 -22z"/>
<path d="M228 823 c7 -3 16 -2 19 1 4 3 -2 6 -13 5 -11 0 -14 -3 -6 -6z"/>
<path d="M1674 737 c17 -18 43 -49 59 -68 15 -19 11 -9 -10 21 -36 53 -61 79
-74 80 -4 0 7 -15 25 -33z"/>
<path d="M1730 726 c0 -2 7 -7 16 -10 8 -3 12 -2 9 4 -6 10 -25 14 -25 6z"/>
<path d="M1847 699 c-9 -5 -23 -7 -30 -3 -8 5 -7 2 2 -9 7 -9 18 -17 24 -17 6
0 7 3 4 7 -4 3 1 12 11 19 20 16 14 18 -11 3z"/>
<path d="M1920 700 c0 -5 12 -10 28 -9 24 0 25 1 7 9 -27 12 -35 12 -35 0z"/>
<path d="M173 665 c0 -22 2 -30 4 -17 2 12 2 30 0 40 -3 9 -5 -1 -4 -23z"/>
<path d="M1660 669 c0 -13 9 -37 20 -54 11 -16 20 -25 20 -20 -1 6 -7 19 -15
29 -27 35 -17 54 11 21 14 -16 21 -21 16 -10 -6 11 -20 29 -31 39 -21 19 -21
19 -21 -5z"/>
<path d="M2008 673 c6 -2 18 -2 25 0 6 3 1 5 -13 5 -14 0 -19 -2 -12 -5z"/>
<path d="M1770 650 c14 -27 29 -34 23 -11 -3 11 -11 22 -19 25 -11 4 -12 2 -4
-14z"/>
<path d="M2063 647 c21 -33 21 -37 0 -38 -10 0 6 -7 36 -15 30 -8 60 -22 67
-32 7 -9 14 -12 14 -7 0 6 -19 29 -42 50 -23 22 -34 30 -24 18 11 -13 15 -23
9 -23 -12 0 -45 35 -38 41 2 3 -6 11 -17 18 -22 14 -22 13 -5 -12z"/>
<path d="M1800 657 c0 -2 15 -16 33 -33 l32 -29 -29 33 c-28 30 -36 37 -36 29z"/>
<path d="M181 600 c-1 -34 22 -106 54 -171 50 -99 228 -257 310 -275 17 -3 -2
10 -43 31 -50 25 -97 61 -152 115 -98 97 -135 166 -164 305 -3 16 -4 15 -5 -5z"/>
<path d="M1970 616 c0 -2 8 -10 18 -17 15 -13 16 -12 3 4 -13 16 -21 21 -21
13z"/>
<path d="M1896 589 c14 -16 15 -23 7 -26 -7 -3 -13 -8 -13 -12 0 -10 58 -71
67 -71 4 0 -8 15 -26 34 -33 34 -30 53 6 39 14 -6 13 -1 -7 24 -14 18 -31 32
-39 32 -10 1 -9 -5 5 -20z"/>
<path d="M206 581 c3 -13 14 -41 24 -63 15 -33 18 -36 23 -19 3 12 1 21 -4 21
-6 0 -19 19 -29 43 -11 23 -17 31 -14 18z"/>
<path d="M1372 556 c-39 -43 -61 -99 -49 -128 3 -7 6 0 6 15 1 39 27 87 64
119 18 14 29 29 26 32 -3 4 -24 -14 -47 -38z"/>
<path d="M1447 577 c-4 -10 2 -13 17 -10 16 4 29 -3 44 -22 21 -27 21 -52 0
-39 -7 4 -8 2 -4 -4 5 -9 12 -9 26 0 18 11 18 13 -3 39 -18 22 -57 49 -71 49
-2 0 -6 -6 -9 -13z"/>
<path d="M1726 568 c10 -14 21 -24 23 -22 3 3 -6 15 -18 27 l-24 22 19 -27z"/>
<path d="M2025 570 c10 -11 20 -20 23 -20 3 0 -3 9 -13 20 -10 11 -20 20 -23
20 -3 0 3 -9 13 -20z"/>
<path d="M428 563 c7 -3 16 -2 19 1 4 3 -2 6 -13 5 -11 0 -14 -3 -6 -6z"/>
<path d="M2020 545 c13 -14 26 -25 28 -25 3 0 -5 11 -18 25 -13 14 -26 25 -28
25 -3 0 5 -11 18 -25z"/>
<path d="M1709 543 c12 -23 29 -38 37 -31 2 3 -8 15 -22 29 -25 23 -26 23 -15
2z"/>
<path d="M1186 507 c-4 -24 -12 -37 -19 -34 -37 15 -48 16 -24 2 32 -18 31
-17 12 -55 -18 -35 -22 -36 -49 -12 -21 17 -21 17 -3 -5 18 -21 18 -22 -7 -39
-25 -16 -28 -16 -49 2 l-22 19 20 -23 c16 -20 17 -25 5 -32 -20 -13 -34 -12
-49 2 -11 11 -11 9 0 -9 14 -24 27 -21 85 23 17 13 34 21 37 17 15 -14 84 142
74 170 -2 6 -7 -5 -11 -26z"/>
<path d="M1411 513 c7 -12 15 -20 18 -17 3 2 -3 12 -13 22 -17 16 -18 16 -5
-5z"/>
<path d="M1838 523 c6 -2 9 -10 6 -15 -4 -7 -2 -8 5 -4 13 9 5 26 -12 25 -9 0
-8 -2 1 -6z"/>
<path d="M2102 520 c14 -4 32 -11 40 -15 7 -3 4 1 -6 9 -11 9 -29 16 -40 15
-17 -1 -16 -2 6 -9z"/>
<path d="M1820 495 c13 -14 26 -25 28 -25 3 0 -5 11 -18 25 -13 14 -26 25 -28
25 -3 0 5 -11 18 -25z"/>
<path d="M1993 501 c-9 -14 -7 -23 13 -47 27 -34 28 -33 11 23 -11 37 -14 40
-24 24z"/>
<path d="M2073 476 c12 -19 26 -35 30 -36 9 0 -28 56 -43 65 -6 3 0 -10 13
-29z"/>
<path d="M2151 461 l-33 -46 36 39 c20 21 36 42 34 46 -2 4 -18 -13 -37 -39z"/>
<path d="M413 483 c9 -2 25 -2 35 0 9 3 1 5 -18 5 -19 0 -27 -2 -17 -5z"/>
<path d="M1762 464 c10 -10 20 -16 22 -13 3 3 -5 11 -17 18 -21 13 -21 12 -5
-5z"/>
<path d="M468 463 c7 -3 16 -2 19 1 4 3 -2 6 -13 5 -11 0 -14 -3 -6 -6z"/>
<path d="M1580 440 c0 -18 -6 -33 -15 -36 -18 -7 -20 -30 -3 -40 6 -4 8 -3 5
3 -4 6 1 21 11 33 15 19 21 20 47 10 17 -6 41 -23 53 -38 21 -24 22 -24 12 -4
-6 13 -25 31 -40 40 -16 10 -31 26 -32 37 -2 11 -11 21 -20 23 -14 3 -18 -3
-18 -28z"/>
<path d="M2193 400 c0 -41 2 -58 4 -37 2 20 2 54 0 75 -2 20 -4 3 -4 -38z"/>
<path d="M1859 448 c7 -10 23 -17 35 -17 20 1 20 2 1 6 -11 3 -27 10 -35 17
-13 10 -13 9 -1 -6z"/>
<path d="M1481 436 c-9 -10 -8 -16 4 -26 13 -11 15 -8 15 14 0 30 -3 32 -19
12z"/>
<path d="M1815 430 c10 -11 20 -20 23 -20 3 0 -3 9 -13 20 -10 11 -20 20 -23
20 -3 0 3 -9 13 -20z"/>
<path d="M458 433 c12 -2 30 -2 40 0 9 3 -1 5 -23 4 -22 0 -30 -2 -17 -4z"/>
<path d="M1441 430 c0 -8 24 -41 54 -73 30 -32 55 -53 55 -46 0 6 -21 30 -46
52 -25 22 -50 50 -54 61 -5 13 -9 15 -9 6z"/>
<path d="M1780 431 c0 -12 90 -85 131 -106 15 -8 68 -21 118 -29 50 -8 97 -18
104 -22 9 -5 9 -4 1 5 -6 6 -48 18 -95 25 -108 18 -142 32 -206 90 -29 27 -53
43 -53 37z"/>
<path d="M1939 423 c6 -12 16 -25 22 -28 20 -13 15 0 -9 25 -22 23 -24 23 -13
3z"/>
<path d="M498 403 c7 -3 16 -2 19 1 4 3 -2 6 -13 5 -11 0 -14 -3 -6 -6z"/>
<path d="M1518 393 c7 -3 16 -2 19 1 4 3 -2 6 -13 5 -11 0 -14 -3 -6 -6z"/>
<path d="M548 383 c7 -3 16 -2 19 1 4 3 -2 6 -13 5 -11 0 -14 -3 -6 -6z"/>
<path d="M1322 355 c0 -16 2 -22 5 -12 2 9 2 23 0 30 -3 6 -5 -1 -5 -18z"/>
<path d="M588 363 c7 -3 16 -2 19 1 4 3 -2 6 -13 5 -11 0 -14 -3 -6 -6z"/>
<path d="M1489 337 c17 -21 29 -42 26 -47 -6 -9 53 -45 61 -37 3 2 -9 10 -26
17 -16 7 -27 16 -24 21 2 5 -12 25 -32 46 l-37 38 32 -38z"/>
<path d="M1950 366 c0 -2 8 -10 18 -17 15 -13 16 -12 3 4 -13 16 -21 21 -21
13z"/>
<path d="M538 353 c6 -2 18 -2 25 0 6 3 1 5 -13 5 -14 0 -19 -2 -12 -5z"/>
<path d="M1100 335 c-8 -8 -40 -28 -70 -44 -30 -17 -50 -31 -45 -31 15 0 109
56 124 74 17 20 10 21 -9 1z"/>
<path d="M2020 346 c0 -2 8 -10 18 -17 15 -13 16 -12 3 4 -13 16 -21 21 -21
13z"/>
<path d="M343 325 c17 -19 17 -19 35 0 16 18 16 18 0 6 -15 -11 -21 -11 -35 0
-17 12 -17 12 0 -6z"/>
<path d="M588 333 c7 -3 16 -2 19 1 4 3 -2 6 -13 5 -11 0 -14 -3 -6 -6z"/>
<path d="M750 325 c-14 -8 -20 -14 -14 -15 5 0 19 7 30 15 24 18 16 19 -16 0z"/>
<path d="M1695 287 c0 -50 -1 -53 -38 -71 -22 -10 -73 -22 -115 -26 l-77 -7
65 -1 c69 -1 129 15 161 44 19 17 28 97 12 107 -5 3 -8 -18 -8 -46z"/>
<path d="M790 310 c-9 -6 -10 -10 -3 -10 6 0 15 5 18 10 8 12 4 12 -15 0z"/>
<path d="M2202 295 c0 -16 2 -22 5 -12 2 9 2 23 0 30 -3 6 -5 -1 -5 -18z"/>
<path d="M927 289 c4 -13 8 -18 11 -10 2 7 -1 18 -6 23 -8 8 -9 4 -5 -13z"/>
<path d="M370 297 c0 -2 15 -14 33 -27 l32 -23 -24 26 c-21 23 -41 35 -41 24z"/>
<path d="M1301 268 c-12 -20 -11 -24 15 -45 17 -13 43 -23 61 -23 17 0 40 -3
50 -6 15 -5 15 -4 3 5 -8 6 -28 11 -43 11 -30 0 -87 25 -87 38 0 5 5 13 12 20
6 6 10 14 7 16 -3 3 -11 -5 -18 -16z"/>
<path d="M1575 280 c-3 -5 -1 -10 4 -10 6 0 11 5 11 10 0 6 -2 10 -4 10 -3 0
-8 -4 -11 -10z"/>
<path d="M1420 255 c13 -14 26 -25 28 -25 3 0 -5 11 -18 25 -13 14 -26 25 -28
25 -3 0 5 -11 18 -25z"/>
<path d="M1450 255 c13 -14 26 -25 28 -25 3 0 -5 11 -18 25 -13 14 -26 25 -28
25 -3 0 5 -11 18 -25z"/>
<path d="M880 210 c-47 -28 -81 -50 -76 -50 11 0 166 90 166 96 0 6 -1 6 -90
-46z"/>
<path d="M1390 256 c0 -2 8 -10 18 -17 15 -13 16 -12 3 4 -13 16 -21 21 -21
13z"/>
<path d="M2178 253 c6 -2 18 -2 25 0 6 3 1 5 -13 5 -14 0 -19 -2 -12 -5z"/>
<path d="M855 240 c-3 -6 1 -7 9 -4 18 7 21 14 7 14 -6 0 -13 -4 -16 -10z"/>
<path d="M1490 246 c0 -2 8 -10 18 -17 15 -13 16 -12 3 4 -13 16 -21 21 -21
13z"/>
<path d="M460 235 c0 -11 81 -45 117 -48 21 -3 28 -2 16 0 -15 3 -23 12 -23
24 0 11 -5 17 -10 14 -6 -4 -8 -11 -5 -16 10 -15 -13 -10 -55 11 -22 11 -40
18 -40 15z"/>
<path d="M731 202 c-1 -21 -5 -23 -46 -21 -24 2 -47 0 -51 -4 -4 -4 18 -7 49
-7 61 0 69 5 56 35 -7 19 -8 19 -8 -3z"/>
<path d="M796 203 c-7 -17 8 -17 23 0 8 10 7 14 -4 14 -8 0 -16 -6 -19 -14z"/>
<path d="M735 150 c-27 -7 -28 -8 -5 -8 14 0 34 3 45 8 25 11 2 11 -40 0z"/>
<path d="M593 143 c9 -2 23 -2 30 0 6 3 -1 5 -18 5 -16 0 -22 -2 -12 -5z"/>
<path d="M653 133 c9 -2 25 -2 35 0 9 3 1 5 -18 5 -19 0 -27 -2 -17 -5z"/>
</g>
</svg>
