<?xml version="1.0" standalone="no"?>
<!DOCTYPE svg PUBLIC "-//W3C//DTD SVG 20010904//EN"
 "http://www.w3.org/TR/2001/REC-SVG-20010904/DTD/svg10.dtd">
<svg version="1.0" xmlns="http://www.w3.org/2000/svg"
 width="216.000000pt" height="183.000000pt" viewBox="0 0 216.000000 183.000000"
 preserveAspectRatio="xMidYMid meet">

<g transform="translate(0.000000,183.000000) scale(0.100000,-0.100000)"
fill="#000000" stroke="none">
<path d="M1038 1631 c-16 -5 -65 -10 -110 -12 -344 -11 -673 -276 -748 -603
-11 -45 -29 -108 -41 -141 -21 -60 -22 -91 -5 -228 5 -43 30 -77 57 -77 10 0
38 -10 61 -22 40 -21 56 -23 216 -23 96 0 176 4 180 9 3 6 -55 7 -144 3 -157
-7 -217 0 -258 26 -24 16 -24 17 -9 56 8 21 26 44 38 49 13 6 33 31 44 56 11
26 25 46 32 46 6 0 38 28 70 63 32 34 64 67 70 72 6 6 31 28 55 50 24 22 60
55 81 73 21 18 58 50 83 72 24 22 49 40 55 40 6 0 24 14 40 30 16 17 34 30 42
30 7 0 26 14 43 30 17 17 36 30 44 30 7 0 27 13 45 29 19 17 46 33 62 36 16 4
29 11 29 16 0 6 24 21 53 35 28 14 63 31 77 38 14 8 36 19 50 25 14 6 40 23
59 36 50 37 68 33 82 -17 14 -53 6 -140 -19 -204 -25 -62 -40 -67 -45 -12 -2
24 -3 10 -4 -30 0 -40 3 -69 7 -65 21 23 58 104 70 152 12 52 10 157 -5 194
-5 12 -2 17 8 17 29 0 28 20 -2 50 -16 17 -40 30 -54 30 -13 0 -46 10 -72 21
-54 24 -190 35 -237 20z m220 -27 c47 -18 51 -25 23 -53 -15 -15 -28 -19 -55
-14 -28 4 -36 2 -36 -9 0 -27 -34 -49 -67 -42 -27 5 -31 3 -41 -25 -10 -28
-15 -31 -52 -31 -37 0 -42 -3 -52 -31 -8 -24 -16 -30 -37 -29 -44 3 -49 1 -60
-30 -8 -26 -15 -30 -46 -30 -25 0 -37 -5 -41 -17 -11 -35 -22 -48 -40 -49 -11
-1 -27 -2 -36 -3 -11 -1 -18 -9 -18 -20 0 -25 -28 -54 -46 -47 -23 9 -44 -5
-44 -28 0 -30 -18 -46 -52 -46 -22 0 -29 -6 -34 -27 -7 -32 -30 -54 -48 -47
-16 6 -33 -14 -38 -46 -2 -19 -11 -26 -40 -33 -33 -8 -38 -13 -38 -37 0 -32
-14 -47 -50 -52 -19 -2 -26 -10 -28 -33 -5 -39 -19 -55 -47 -55 -24 0 -35 -17
-35 -56 0 -17 -7 -25 -25 -30 -14 -4 -29 -3 -33 1 -18 17 -5 151 21 219 15 37
27 77 27 88 0 36 41 143 82 211 48 83 151 194 233 252 130 92 241 132 404 146
64 5 136 13 161 17 58 11 134 5 188 -14z"/>
<path d="M743 1498 c-18 -6 -33 -14 -33 -18 0 -4 16 -2 35 4 19 6 35 14 35 18
0 5 -1 8 -2 7 -2 -1 -18 -6 -35 -11z"/>
<path d="M589 1419 c-35 -23 -88 -61 -117 -86 -53 -45 -148 -160 -139 -169 2
-2 23 20 46 50 23 30 64 75 91 100 44 41 153 118 183 129 7 2 9 7 6 11 -3 3
-35 -12 -70 -35z"/>
<path d="M1340 1135 c-238 -48 -474 -212 -556 -385 -14 -30 -41 -76 -60 -102
-48 -65 -71 -121 -84 -210 -13 -91 -9 -110 27 -129 15 -8 38 -25 52 -38 39
-36 119 -69 191 -80 36 -5 85 -17 110 -26 68 -26 247 -31 351 -11 91 19 208
65 296 118 77 46 192 161 233 233 18 33 51 80 73 105 56 64 96 149 103 219 5
48 11 60 26 64 15 4 18 11 13 29 -8 27 -44 68 -59 68 -5 0 -35 17 -66 39 -67
46 -131 68 -236 81 -43 5 -104 16 -134 25 -66 18 -191 18 -280 0z m280 -20
c36 -9 105 -20 153 -25 88 -9 153 -31 207 -70 25 -18 28 -25 20 -41 -12 -21
-59 -26 -77 -8 -9 9 -19 5 -42 -14 -27 -22 -34 -24 -60 -14 -27 10 -33 8 -55
-12 -19 -18 -30 -21 -61 -15 -31 5 -39 3 -52 -15 -13 -19 -21 -21 -58 -15 -39
5 -44 4 -50 -16 -6 -20 -12 -22 -51 -16 -41 5 -46 4 -56 -20 -11 -24 -16 -26
-54 -20 -37 5 -42 3 -52 -19 -10 -21 -19 -25 -54 -25 -35 0 -45 -4 -53 -22 -8
-18 -19 -23 -48 -24 -38 -1 -57 -15 -57 -41 0 -9 -16 -13 -45 -13 -39 0 -45
-3 -51 -24 -7 -29 -26 -38 -60 -30 -19 5 -26 1 -36 -22 -17 -38 -28 -45 -60
-38 -24 5 -29 1 -42 -30 -13 -32 -19 -36 -50 -36 -31 0 -38 -4 -50 -35 -12
-27 -21 -35 -40 -35 -23 0 -26 4 -26 35 0 47 31 125 72 182 19 27 50 77 69
113 64 121 214 250 364 313 150 63 321 82 455 52z m440 -272 c0 -27 -5 -64
-10 -84 -14 -49 -82 -144 -103 -143 -9 1 -17 -5 -17 -13 0 -27 -59 -127 -106
-181 -186 -213 -542 -324 -790 -247 -27 9 -84 22 -127 30 -80 15 -172 57 -191
87 -15 25 14 70 53 83 17 6 46 28 65 48 18 20 43 37 53 37 11 0 28 9 37 19 10
11 29 22 44 26 14 3 39 17 55 31 16 13 35 24 44 24 8 0 28 11 45 25 16 14 37
25 47 25 9 0 32 11 51 25 19 14 43 25 54 25 12 0 32 9 46 20 14 11 36 20 48
20 13 0 35 9 49 20 14 11 36 20 49 20 13 0 41 9 61 20 21 11 49 20 63 20 14 0
34 7 44 15 11 8 33 15 49 15 15 0 37 5 48 11 19 10 67 21 169 37 25 5 54 13
65 20 11 6 39 12 63 12 l42 0 0 -47z"/>
<path d="M1425 1050 c-18 -8 -18 -9 5 -9 14 0 34 4 45 9 18 8 18 9 -5 9 -14 0
-34 -4 -45 -9z"/>
<path d="M1250 1011 c-41 -15 -95 -38 -120 -51 -59 -30 -160 -100 -160 -112 0
-5 24 9 53 30 82 62 144 94 246 128 53 18 87 33 76 33 -11 0 -54 -13 -95 -28z"/>
<path d="M1942 650 c0 -14 2 -19 5 -12 2 6 2 18 0 25 -3 6 -5 1 -5 -13z"/>
<path d="M855 280 c28 -12 37 -12 30 0 -3 6 -16 10 -28 9 -21 0 -21 -1 -2 -9z"/>
<path d="M330 598 c0 -5 18 -8 40 -8 22 0 40 2 40 4 0 2 -18 6 -40 8 -22 2
-40 0 -40 -4z"/>
</g>
</svg>
